# File generated by ImageToStl.com - Free Image and 3D model conversion tools

mtllib PinHeader_1x03_P2.54mm_Vertical.mtl

o obj1
v 0.31999999 -0.31999999 0
v 0.31999999 -0.31999999 -2.83999991
v 0.31999999 0.31999999 -2.83999991
v 0.31999999 0.31999999 0
v -0.31999999 0.31999999 -2.83999991
v -0.31999999 0.31999999 0
v -0.31999999 -0.31999999 -2.83999991
v -0.31999999 -0.31999999 0
v 0.16 -0.16 -3
v 0.16 0.16 -3
v -0.16 0.16 -3
v -0.16 -0.16 -3
v 0.31999999 -2.8599999 -2.83999991
v 0.31999999 -2.8599999 0
v -0.31999999 -2.8599999 -2.83999991
v -0.31999999 -2.8599999 0
v 0.31999999 -2.22000003 -2.83999991
v 0.31999999 -2.22000003 0
v -0.31999999 -2.22000003 -2.83999991
v -0.31999999 -2.22000003 0
v -0.16 -2.70000005 -3
v 0.16 -2.70000005 -3
v 0.16 -2.38000011 -3
v -0.16 -2.38000011 -3
v 0.31999999 -4.76000023 0
v 0.31999999 -4.76000023 -2.83999991
v -0.31999999 -4.76000023 -2.83999991
v -0.31999999 -4.76000023 0
v -0.31999999 -5.4000001 -2.83999991
v -0.31999999 -5.4000001 0
v 0.31999999 -5.4000001 -2.83999991
v 0.31999999 -5.4000001 0
v 0.16 -4.92000008 -3
v -0.16 -4.92000008 -3
v -0.16 -5.23999977 -3
v 0.16 -5.23999977 -3
v 0.31999999 -0.31999999 8.38000011
v 0.31999999 -0.31999999 2.53999996
v 0.31999999 0.31999999 2.53999996
v 0.31999999 0.31999999 8.38000011
v -0.31999999 0.31999999 2.53999996
v -0.31999999 0.31999999 8.38000011
v -0.31999999 -0.31999999 2.53999996
v -0.31999999 -0.31999999 8.38000011
v 0.16 0.16 8.53999996
v 0.16 -0.16 8.53999996
v -0.16 0.16 8.53999996
v -0.16 -0.16 8.53999996
v 0.31999999 -2.8599999 2.53999996
v 0.31999999 -2.8599999 8.38000011
v -0.31999999 -2.8599999 2.53999996
v -0.31999999 -2.8599999 8.38000011
v 0.31999999 -2.22000003 2.53999996
v 0.31999999 -2.22000003 8.38000011
v -0.31999999 -2.22000003 2.53999996
v -0.31999999 -2.22000003 8.38000011
v 0.16 -2.70000005 8.53999996
v -0.16 -2.70000005 8.53999996
v 0.16 -2.38000011 8.53999996
v -0.16 -2.38000011 8.53999996
v 0.31999999 -4.76000023 8.38000011
v 0.31999999 -4.76000023 2.53999996
v -0.31999999 -4.76000023 2.53999996
v -0.31999999 -4.76000023 8.38000011
v -0.31999999 -5.4000001 2.53999996
v -0.31999999 -5.4000001 8.38000011
v 0.31999999 -5.4000001 2.53999996
v 0.31999999 -5.4000001 8.38000011
v -0.16 -4.92000008 8.53999996
v 0.16 -4.92000008 8.53999996
v -0.16 -5.23999977 8.53999996
v 0.16 -5.23999977 8.53999996
usemtl mat1
f 1 2 3
f 1 3 4
f 4 3 5
f 4 5 6
f 7 8 5
f 5 8 6
f 2 1 7
f 7 1 8
f 9 10 2
f 2 10 3
f 10 11 3
f 3 11 5
f 11 12 7
f 11 7 5
f 12 9 2
f 12 2 7
f 11 10 12
f 12 10 9
f 13 14 15
f 15 14 16
f 14 13 17
f 14 17 18
f 18 17 19
f 18 19 20
f 15 16 19
f 19 16 20
f 21 22 13
f 21 13 15
f 22 23 13
f 13 23 17
f 23 24 17
f 17 24 19
f 24 21 15
f 24 15 19
f 24 23 21
f 21 23 22
f 25 26 27
f 25 27 28
f 29 30 27
f 27 30 28
f 31 32 29
f 29 32 30
f 32 31 26
f 32 26 25
f 33 34 26
f 26 34 27
f 34 35 29
f 34 29 27
f 35 36 31
f 35 31 29
f 36 33 31
f 31 33 26
f 34 33 35
f 35 33 36
f 37 38 39
f 37 39 40
f 40 39 41
f 40 41 42
f 43 44 41
f 41 44 42
f 38 37 43
f 43 37 44
f 45 46 37
f 45 37 40
f 47 45 40
f 47 40 42
f 48 47 44
f 44 47 42
f 46 44 37
f 46 48 44
f 45 48 46
f 45 47 48
f 49 50 51
f 51 50 52
f 50 49 53
f 50 53 54
f 54 53 55
f 54 55 56
f 51 52 55
f 55 52 56
f 57 52 50
f 57 58 52
f 59 57 50
f 59 50 54
f 60 59 54
f 60 54 56
f 58 60 52
f 52 60 56
f 59 58 57
f 59 60 58
f 61 62 63
f 61 63 64
f 65 66 63
f 63 66 64
f 67 68 65
f 65 68 66
f 68 67 62
f 68 62 61
f 69 70 61
f 69 61 64
f 71 69 66
f 66 69 64
f 72 66 68
f 72 71 66
f 70 72 68
f 70 68 61
f 70 71 72
f 70 69 71
# Vertices: 72, normals: 0, texture coordinates: 0, faces: 108

o obj2
v -1.01600003 1.26999998 0
v -1.26999998 1.01600003 0
v -1.01600003 1.26999998 2.53999996
v -1.26999998 1.01600003 2.53999996
v 1.01600003 1.26999998 0
v 1.01600003 1.26999998 2.53999996
v -1.26999998 -1.01600003 0
v -1.26999998 -1.01600003 2.53999996
v -1.26999998 -6.09600019 0
v -0.31999999 -5.4000001 0
v -1.01600003 -6.3499999 0
v 0.31999999 -5.4000001 0
v 1.01600003 -6.3499999 0
v -1.26999998 -4.06400013 0
v -0.31999999 -4.76000023 0
v 1.26999998 -6.09600019 0
v -1.01600003 -3.80999994 0
v -1.26999998 -3.55599999 0
v -0.31999999 -2.8599999 0
v 0.31999999 -4.76000023 0
v 1.26999998 -4.06400013 0
v 1.01600003 -3.80999994 0
v -1.26999998 -1.52400005 0
v -0.31999999 -2.22000003 0
v 0.31999999 -2.8599999 0
v 1.26999998 -3.55599999 0
v -1.01600003 -1.26999998 0
v 0.31999999 -2.22000003 0
v -0.31999999 -0.31999999 0
v 1.26999998 -1.52400005 0
v 1.01600003 -1.26999998 0
v 0.31999999 -0.31999999 0
v -0.31999999 0.31999999 0
v 1.26999998 -1.01600003 0
v 0.31999999 0.31999999 0
v 1.26999998 1.01600003 0
v -0.31999999 -5.4000001 2.53999996
v -1.26999998 -6.09600019 2.53999996
v -1.01600003 -6.3499999 2.53999996
v 0.31999999 -5.4000001 2.53999996
v 1.01600003 -6.3499999 2.53999996
v -0.31999999 -4.76000023 2.53999996
v -1.26999998 -4.06400013 2.53999996
v 1.26999998 -6.09600019 2.53999996
v -1.01600003 -3.80999994 2.53999996
v -0.31999999 -2.8599999 2.53999996
v -1.26999998 -3.55599999 2.53999996
v 1.26999998 -4.06400013 2.53999996
v 0.31999999 -4.76000023 2.53999996
v 1.01600003 -3.80999994 2.53999996
v -0.31999999 -2.22000003 2.53999996
v -1.26999998 -1.52400005 2.53999996
v 0.31999999 -2.8599999 2.53999996
v 1.26999998 -3.55599999 2.53999996
v -1.01600003 -1.26999998 2.53999996
v 0.31999999 -2.22000003 2.53999996
v -0.31999999 -0.31999999 2.53999996
v 1.26999998 -1.52400005 2.53999996
v 1.01600003 -1.26999998 2.53999996
v 0.31999999 -0.31999999 2.53999996
v -0.31999999 0.31999999 2.53999996
v 1.26999998 -1.01600003 2.53999996
v 0.31999999 0.31999999 2.53999996
v 1.26999998 1.01600003 2.53999996
usemtl mat0
f 73 74 75
f 75 74 76
f 77 73 78
f 78 73 75
f 74 79 76
f 76 79 80
f 81 82 83
f 83 84 85
f 82 84 83
f 86 87 81
f 81 87 82
f 84 88 85
f 86 89 87
f 90 91 89
f 89 91 87
f 92 93 84
f 84 93 88
f 92 94 93
f 95 96 90
f 90 96 91
f 87 97 92
f 91 97 87
f 92 97 94
f 97 98 94
f 95 99 96
f 97 100 98
f 79 101 99
f 99 101 96
f 100 102 98
f 100 103 102
f 96 104 100
f 101 104 96
f 100 104 103
f 74 105 79
f 79 105 101
f 74 73 105
f 104 106 103
f 73 107 105
f 104 107 106
f 107 108 106
f 73 77 107
f 107 77 108
f 109 110 111
f 112 111 113
f 112 109 111
f 114 115 110
f 114 110 109
f 116 112 113
f 117 115 114
f 118 119 117
f 118 117 114
f 120 121 112
f 120 112 116
f 122 121 120
f 123 124 119
f 123 119 118
f 125 114 121
f 125 118 114
f 125 121 122
f 126 125 122
f 127 124 123
f 128 125 126
f 129 80 127
f 129 127 123
f 130 128 126
f 131 128 130
f 132 123 128
f 132 129 123
f 132 128 131
f 133 76 80
f 133 80 129
f 75 76 133
f 134 132 131
f 135 75 133
f 135 132 134
f 136 135 134
f 78 75 135
f 78 135 136
f 108 77 136
f 136 77 78
f 79 99 80
f 80 99 127
f 106 108 134
f 134 108 136
f 99 95 127
f 127 95 124
f 103 106 131
f 131 106 134
f 95 90 124
f 124 90 119
f 102 103 130
f 130 103 131
f 90 89 119
f 119 89 117
f 98 102 126
f 126 102 130
f 89 86 117
f 117 86 115
f 94 98 122
f 122 98 126
f 86 81 115
f 115 81 110
f 93 94 120
f 120 94 122
f 81 83 110
f 110 83 111
f 88 93 116
f 116 93 120
f 83 85 111
f 111 85 113
f 85 88 113
f 113 88 116
# Vertices: 64, normals: 0, texture coordinates: 0, faces: 112

