# File generated by ImageToStl.com - Free Image and 3D model conversion tools

mtllib PinHeader_1x08_P2.54mm_Vertical.mtl

o obj1
v 0.31999999 -18.10000038 -2.83999991
v 0.31999999 -18.10000038 0
v -0.31999999 -18.10000038 -2.83999991
v -0.31999999 -18.10000038 0
v 0.31999999 -17.45999908 -2.83999991
v 0.31999999 -17.45999908 0
v -0.31999999 -17.45999908 -2.83999991
v -0.31999999 -17.45999908 0
v 0.16 -17.94000053 -3
v -0.16 -17.94000053 -3
v 0.16 -17.62000084 -3
v -0.16 -17.62000084 -3
v 0.31999999 -14.92000008 0
v 0.31999999 -14.92000008 -2.83999991
v -0.31999999 -14.92000008 -2.83999991
v -0.31999999 -14.92000008 0
v -0.31999999 -15.56000042 -2.83999991
v -0.31999999 -15.56000042 0
v 0.31999999 -15.56000042 -2.83999991
v 0.31999999 -15.56000042 0
v 0.16 -15.07999992 -3
v -0.16 -15.07999992 -3
v -0.16 -15.39999962 -3
v 0.16 -15.39999962 -3
v 0.31999999 -7.94000006 0
v 0.31999999 -7.94000006 -2.83999991
v 0.31999999 -7.30000019 -2.83999991
v 0.31999999 -7.30000019 0
v -0.31999999 -7.30000019 -2.83999991
v -0.31999999 -7.30000019 0
v -0.31999999 -7.94000006 -2.83999991
v -0.31999999 -7.94000006 0
v 0.16 -7.78000021 -3
v 0.16 -7.46000004 -3
v -0.16 -7.46000004 -3
v -0.16 -7.78000021 -3
v 0.31999999 -12.38000011 0
v 0.31999999 -12.38000011 -2.83999991
v -0.31999999 -12.38000011 -2.83999991
v -0.31999999 -12.38000011 0
v -0.31999999 -13.02000046 -2.83999991
v -0.31999999 -13.02000046 0
v 0.31999999 -13.02000046 -2.83999991
v 0.31999999 -13.02000046 0
v 0.16 -12.53999996 -3
v -0.16 -12.53999996 -3
v -0.16 -12.85999966 -3
v 0.16 -12.85999966 -3
v 0.31999999 -10.47999954 0
v 0.31999999 -10.47999954 -2.83999991
v 0.31999999 -9.84000015 -2.83999991
v 0.31999999 -9.84000015 0
v -0.31999999 -9.84000015 -2.83999991
v -0.31999999 -9.84000015 0
v -0.31999999 -10.47999954 -2.83999991
v -0.31999999 -10.47999954 0
v 0.16 -10.31999969 -3
v 0.16 -10 -3
v -0.16 -10 -3
v -0.16 -10.31999969 -3
v 0.31999999 -2.22000003 0
v 0.31999999 -2.22000003 -2.83999991
v -0.31999999 -2.22000003 -2.83999991
v -0.31999999 -2.22000003 0
v -0.31999999 -2.8599999 -2.83999991
v -0.31999999 -2.8599999 0
v 0.31999999 -2.8599999 -2.83999991
v 0.31999999 -2.8599999 0
v 0.16 -2.38000011 -3
v -0.16 -2.38000011 -3
v -0.16 -2.70000005 -3
v 0.16 -2.70000005 -3
v 0.31999999 -5.4000001 -2.83999991
v 0.31999999 -5.4000001 0
v -0.31999999 -5.4000001 -2.83999991
v -0.31999999 -5.4000001 0
v 0.31999999 -4.76000023 -2.83999991
v 0.31999999 -4.76000023 0
v -0.31999999 -4.76000023 -2.83999991
v -0.31999999 -4.76000023 0
v -0.16 -5.23999977 -3
v 0.16 -5.23999977 -3
v 0.16 -4.92000008 -3
v -0.16 -4.92000008 -3
v 0.31999999 -0.31999999 0
v 0.31999999 -0.31999999 -2.83999991
v 0.31999999 0.31999999 -2.83999991
v 0.31999999 0.31999999 0
v -0.31999999 0.31999999 -2.83999991
v -0.31999999 0.31999999 0
v -0.31999999 -0.31999999 -2.83999991
v -0.31999999 -0.31999999 0
v 0.16 -0.16 -3
v 0.16 0.16 -3
v -0.16 0.16 -3
v -0.16 -0.16 -3
v 0.31999999 -18.10000038 2.53999996
v 0.31999999 -18.10000038 8.38000011
v -0.31999999 -18.10000038 2.53999996
v -0.31999999 -18.10000038 8.38000011
v 0.31999999 -17.45999908 2.53999996
v 0.31999999 -17.45999908 8.38000011
v -0.31999999 -17.45999908 2.53999996
v -0.31999999 -17.45999908 8.38000011
v 0.16 -17.94000053 8.53999996
v -0.16 -17.94000053 8.53999996
v 0.16 -17.62000084 8.53999996
v -0.16 -17.62000084 8.53999996
v 0.31999999 -14.92000008 8.38000011
v 0.31999999 -14.92000008 2.53999996
v -0.31999999 -14.92000008 2.53999996
v -0.31999999 -14.92000008 8.38000011
v -0.31999999 -15.56000042 2.53999996
v -0.31999999 -15.56000042 8.38000011
v 0.31999999 -15.56000042 2.53999996
v 0.31999999 -15.56000042 8.38000011
v -0.16 -15.07999992 8.53999996
v 0.16 -15.07999992 8.53999996
v -0.16 -15.39999962 8.53999996
v 0.16 -15.39999962 8.53999996
v 0.31999999 -7.94000006 8.38000011
v 0.31999999 -7.94000006 2.53999996
v 0.31999999 -7.30000019 2.53999996
v 0.31999999 -7.30000019 8.38000011
v -0.31999999 -7.30000019 2.53999996
v -0.31999999 -7.30000019 8.38000011
v -0.31999999 -7.94000006 2.53999996
v -0.31999999 -7.94000006 8.38000011
v 0.16 -7.46000004 8.53999996
v 0.16 -7.78000021 8.53999996
v -0.16 -7.46000004 8.53999996
v -0.16 -7.78000021 8.53999996
v 0.31999999 -12.38000011 8.38000011
v 0.31999999 -12.38000011 2.53999996
v -0.31999999 -12.38000011 2.53999996
v -0.31999999 -12.38000011 8.38000011
v -0.31999999 -13.02000046 2.53999996
v -0.31999999 -13.02000046 8.38000011
v 0.31999999 -13.02000046 2.53999996
v 0.31999999 -13.02000046 8.38000011
v -0.16 -12.53999996 8.53999996
v 0.16 -12.53999996 8.53999996
v -0.16 -12.85999966 8.53999996
v 0.16 -12.85999966 8.53999996
v 0.31999999 -10.47999954 8.38000011
v 0.31999999 -10.47999954 2.53999996
v 0.31999999 -9.84000015 2.53999996
v 0.31999999 -9.84000015 8.38000011
v -0.31999999 -9.84000015 2.53999996
v -0.31999999 -9.84000015 8.38000011
v -0.31999999 -10.47999954 2.53999996
v -0.31999999 -10.47999954 8.38000011
v 0.16 -10.31999969 8.53999996
v 0.16 -10 8.53999996
v -0.16 -10 8.53999996
v -0.16 -10.31999969 8.53999996
v 0.31999999 -2.22000003 8.38000011
v 0.31999999 -2.22000003 2.53999996
v -0.31999999 -2.22000003 2.53999996
v -0.31999999 -2.22000003 8.38000011
v -0.31999999 -2.8599999 2.53999996
v -0.31999999 -2.8599999 8.38000011
v 0.31999999 -2.8599999 2.53999996
v 0.31999999 -2.8599999 8.38000011
v -0.16 -2.38000011 8.53999996
v 0.16 -2.38000011 8.53999996
v -0.16 -2.70000005 8.53999996
v 0.16 -2.70000005 8.53999996
v 0.31999999 -5.4000001 2.53999996
v 0.31999999 -5.4000001 8.38000011
v -0.31999999 -5.4000001 2.53999996
v -0.31999999 -5.4000001 8.38000011
v 0.31999999 -4.76000023 2.53999996
v 0.31999999 -4.76000023 8.38000011
v -0.31999999 -4.76000023 2.53999996
v -0.31999999 -4.76000023 8.38000011
v 0.16 -5.23999977 8.53999996
v -0.16 -5.23999977 8.53999996
v 0.16 -4.92000008 8.53999996
v -0.16 -4.92000008 8.53999996
v 0.31999999 -0.31999999 8.38000011
v 0.31999999 -0.31999999 2.53999996
v 0.31999999 0.31999999 2.53999996
v 0.31999999 0.31999999 8.38000011
v -0.31999999 0.31999999 2.53999996
v -0.31999999 0.31999999 8.38000011
v -0.31999999 -0.31999999 2.53999996
v -0.31999999 -0.31999999 8.38000011
v 0.16 0.16 8.53999996
v 0.16 -0.16 8.53999996
v -0.16 0.16 8.53999996
v -0.16 -0.16 8.53999996
usemtl mat1
f 1 2 3
f 3 2 4
f 2 1 5
f 2 5 6
f 6 5 7
f 6 7 8
f 3 4 7
f 7 4 8
f 3 9 1
f 10 9 3
f 9 11 1
f 1 11 5
f 11 12 5
f 5 12 7
f 12 10 3
f 12 3 7
f 10 11 9
f 12 11 10
f 13 14 15
f 13 15 16
f 17 18 15
f 15 18 16
f 19 20 17
f 17 20 18
f 20 19 14
f 20 14 13
f 21 22 14
f 14 22 15
f 22 23 17
f 22 17 15
f 23 24 19
f 23 19 17
f 24 21 19
f 19 21 14
f 23 21 24
f 22 21 23
f 25 26 27
f 25 27 28
f 28 27 29
f 28 29 30
f 31 32 29
f 29 32 30
f 26 25 31
f 31 25 32
f 33 34 26
f 26 34 27
f 34 35 27
f 27 35 29
f 35 36 31
f 35 31 29
f 36 33 26
f 36 26 31
f 36 34 33
f 35 34 36
f 37 38 39
f 37 39 40
f 41 42 39
f 39 42 40
f 43 44 41
f 41 44 42
f 44 43 38
f 44 38 37
f 45 46 38
f 38 46 39
f 46 47 41
f 46 41 39
f 47 48 43
f 47 43 41
f 48 38 43
f 48 45 38
f 47 45 48
f 46 45 47
f 49 50 51
f 49 51 52
f 52 51 53
f 52 53 54
f 55 56 53
f 53 56 54
f 50 49 55
f 55 49 56
f 57 58 50
f 50 58 51
f 58 59 51
f 51 59 53
f 59 60 55
f 59 55 53
f 60 57 50
f 60 50 55
f 60 58 57
f 59 58 60
f 61 62 63
f 61 63 64
f 65 66 63
f 63 66 64
f 67 68 65
f 65 68 66
f 68 67 62
f 68 62 61
f 69 70 62
f 62 70 63
f 70 71 65
f 70 65 63
f 71 72 67
f 71 67 65
f 72 69 67
f 67 69 62
f 71 69 72
f 70 69 71
f 73 74 75
f 75 74 76
f 74 73 77
f 74 77 78
f 78 77 79
f 78 79 80
f 75 76 79
f 79 76 80
f 81 82 73
f 81 73 75
f 82 83 73
f 73 83 77
f 83 84 77
f 77 84 79
f 84 81 75
f 84 75 79
f 81 83 82
f 84 83 81
f 85 86 87
f 85 87 88
f 88 87 89
f 88 89 90
f 91 92 89
f 89 92 90
f 86 85 91
f 91 85 92
f 93 94 86
f 86 94 87
f 94 95 87
f 87 95 89
f 95 96 91
f 95 91 89
f 96 93 86
f 96 86 91
f 96 94 93
f 95 94 96
f 97 98 99
f 99 98 100
f 98 97 101
f 98 101 102
f 102 101 103
f 102 103 104
f 99 100 103
f 103 100 104
f 105 100 98
f 105 106 100
f 102 105 98
f 107 105 102
f 104 107 102
f 108 107 104
f 106 108 100
f 100 108 104
f 107 106 105
f 107 108 106
f 109 110 111
f 109 111 112
f 113 114 111
f 111 114 112
f 115 116 113
f 113 116 114
f 116 115 110
f 116 110 109
f 117 118 109
f 117 109 112
f 119 117 114
f 114 117 112
f 120 114 116
f 120 119 114
f 109 120 116
f 118 120 109
f 118 119 120
f 118 117 119
f 121 122 123
f 121 123 124
f 124 123 125
f 124 125 126
f 127 128 125
f 125 128 126
f 122 121 127
f 127 121 128
f 129 130 121
f 129 121 124
f 131 129 124
f 131 124 126
f 132 131 128
f 128 131 126
f 130 128 121
f 130 132 128
f 129 132 130
f 129 131 132
f 133 134 135
f 133 135 136
f 137 138 135
f 135 138 136
f 139 140 137
f 137 140 138
f 140 139 134
f 140 134 133
f 141 142 133
f 141 133 136
f 143 136 138
f 143 141 136
f 144 143 140
f 140 143 138
f 133 144 140
f 142 144 133
f 142 143 144
f 142 141 143
f 145 146 147
f 145 147 148
f 148 147 149
f 148 149 150
f 151 152 149
f 149 152 150
f 146 145 151
f 151 145 152
f 148 153 145
f 154 153 148
f 155 154 148
f 155 148 150
f 156 155 152
f 152 155 150
f 153 152 145
f 153 156 152
f 154 156 153
f 154 155 156
f 157 158 159
f 157 159 160
f 161 162 159
f 159 162 160
f 163 164 161
f 161 164 162
f 164 163 158
f 164 158 157
f 165 166 157
f 165 157 160
f 167 165 162
f 162 165 160
f 168 162 164
f 168 167 162
f 166 168 164
f 166 164 157
f 166 167 168
f 166 165 167
f 169 170 171
f 171 170 172
f 170 169 173
f 170 173 174
f 174 173 175
f 174 175 176
f 171 172 175
f 175 172 176
f 177 172 170
f 177 178 172
f 179 177 170
f 179 170 174
f 180 179 174
f 180 174 176
f 178 180 172
f 172 180 176
f 179 178 177
f 179 180 178
f 181 182 183
f 181 183 184
f 184 183 185
f 184 185 186
f 187 188 185
f 185 188 186
f 182 181 187
f 187 181 188
f 189 190 181
f 189 181 184
f 191 189 184
f 191 184 186
f 192 191 188
f 188 191 186
f 190 188 181
f 190 192 188
f 189 192 190
f 189 191 192
# Vertices: 192, normals: 0, texture coordinates: 0, faces: 288

o obj2
v -1.01600003 1.26999998 0
v -1.26999998 1.01600003 0
v -1.01600003 1.26999998 2.53999996
v -1.26999998 1.01600003 2.53999996
v 1.01600003 1.26999998 0
v 1.01600003 1.26999998 2.53999996
v -1.26999998 -1.01600003 0
v -1.26999998 -1.01600003 2.53999996
v -1.26999998 -18.79599953 0
v -0.31999999 -18.10000038 0
v -1.01600003 -19.04999924 0
v 0.31999999 -18.10000038 0
v 1.01600003 -19.04999924 0
v -1.26999998 -16.76399994 0
v -0.31999999 -17.45999908 0
v -1.01600003 -16.51000023 0
v 1.26999998 -18.79599953 0
v 0.31999999 -17.45999908 0
v -0.31999999 -15.56000042 0
v -1.26999998 -16.25600052 0
v 1.26999998 -16.76399994 0
v 1.01600003 -16.51000023 0
v 0.31999999 -15.56000042 0
v -0.31999999 -14.92000008 0
v -1.26999998 -14.22399998 0
v 1.26999998 -16.25600052 0
v -1.01600003 -13.97000027 0
v 0.31999999 -14.92000008 0
v -0.31999999 -13.02000046 0
v -1.26999998 -13.7159996 0
v 1.26999998 -14.22399998 0
v 1.01600003 -13.97000027 0
v 0.31999999 -13.02000046 0
v -0.31999999 -12.38000011 0
v -1.26999998 -11.68400002 0
v 1.26999998 -13.7159996 0
v -1.01600003 -11.43000031 0
v -1.26999998 -11.17599964 0
v -0.31999999 -10.47999954 0
v 1.26999998 -11.68400002 0
v 1.01600003 -11.43000031 0
v 0.31999999 -12.38000011 0
v 0.31999999 -10.47999954 0
v -1.26999998 -9.14400005 0
v -0.31999999 -9.84000015 0
v -1.01600003 -8.89000034 0
v 1.26999998 -11.17599964 0
v -1.26999998 -8.63599968 0
v -0.31999999 -7.94000006 0
v 0.31999999 -9.84000015 0
v 1.26999998 -9.14400005 0
v 1.01600003 -8.89000034 0
v 0.31999999 -7.94000006 0
v -1.26999998 -6.60400009 0
v -0.31999999 -7.30000019 0
v -1.01600003 -6.3499999 0
v 1.26999998 -8.63599968 0
v -1.26999998 -6.09600019 0
v -0.31999999 -5.4000001 0
v 0.31999999 -7.30000019 0
v 1.26999998 -6.60400009 0
v 1.01600003 -6.3499999 0
v 0.31999999 -5.4000001 0
v -1.26999998 -4.06400013 0
v -0.31999999 -4.76000023 0
v 1.26999998 -6.09600019 0
v -1.01600003 -3.80999994 0
v 0.31999999 -4.76000023 0
v -1.26999998 -3.55599999 0
v -0.31999999 -2.8599999 0
v 1.26999998 -4.06400013 0
v 1.01600003 -3.80999994 0
v -0.31999999 -2.22000003 0
v -1.26999998 -1.52400005 0
v 0.31999999 -2.8599999 0
v 1.26999998 -3.55599999 0
v -1.01600003 -1.26999998 0
v 0.31999999 -2.22000003 0
v -0.31999999 -0.31999999 0
v 1.26999998 -1.52400005 0
v 1.01600003 -1.26999998 0
v 0.31999999 -0.31999999 0
v -0.31999999 0.31999999 0
v 1.26999998 -1.01600003 0
v 0.31999999 0.31999999 0
v 1.26999998 1.01600003 0
v -0.31999999 -18.10000038 2.53999996
v -1.26999998 -18.79599953 2.53999996
v -1.01600003 -19.04999924 2.53999996
v 0.31999999 -18.10000038 2.53999996
v 1.01600003 -19.04999924 2.53999996
v -0.31999999 -17.45999908 2.53999996
v -1.26999998 -16.76399994 2.53999996
v -1.01600003 -16.51000023 2.53999996
v 1.26999998 -18.79599953 2.53999996
v 0.31999999 -17.45999908 2.53999996
v -0.31999999 -15.56000042 2.53999996
v -1.26999998 -16.25600052 2.53999996
v 1.26999998 -16.76399994 2.53999996
v 1.01600003 -16.51000023 2.53999996
v 0.31999999 -15.56000042 2.53999996
v -0.31999999 -14.92000008 2.53999996
v -1.26999998 -14.22399998 2.53999996
v 1.26999998 -16.25600052 2.53999996
v -1.01600003 -13.97000027 2.53999996
v 0.31999999 -14.92000008 2.53999996
v -0.31999999 -13.02000046 2.53999996
v -1.26999998 -13.7159996 2.53999996
v 1.26999998 -14.22399998 2.53999996
v 1.01600003 -13.97000027 2.53999996
v 0.31999999 -13.02000046 2.53999996
v -0.31999999 -12.38000011 2.53999996
v -1.26999998 -11.68400002 2.53999996
v 1.26999998 -13.7159996 2.53999996
v -1.01600003 -11.43000031 2.53999996
v -0.31999999 -10.47999954 2.53999996
v -1.26999998 -11.17599964 2.53999996
v 1.26999998 -11.68400002 2.53999996
v 1.01600003 -11.43000031 2.53999996
v 0.31999999 -12.38000011 2.53999996
v 0.31999999 -10.47999954 2.53999996
v -0.31999999 -9.84000015 2.53999996
v -1.26999998 -9.14400005 2.53999996
v -1.01600003 -8.89000034 2.53999996
v 1.26999998 -11.17599964 2.53999996
v -0.31999999 -7.94000006 2.53999996
v -1.26999998 -8.63599968 2.53999996
v 0.31999999 -9.84000015 2.53999996
v 1.26999998 -9.14400005 2.53999996
v 1.01600003 -8.89000034 2.53999996
v 0.31999999 -7.94000006 2.53999996
v -0.31999999 -7.30000019 2.53999996
v -1.26999998 -6.60400009 2.53999996
v -1.01600003 -6.3499999 2.53999996
v 1.26999998 -8.63599968 2.53999996
v -0.31999999 -5.4000001 2.53999996
v -1.26999998 -6.09600019 2.53999996
v 1.26999998 -6.60400009 2.53999996
v 0.31999999 -7.30000019 2.53999996
v 1.01600003 -6.3499999 2.53999996
v 0.31999999 -5.4000001 2.53999996
v -0.31999999 -4.76000023 2.53999996
v -1.26999998 -4.06400013 2.53999996
v 1.26999998 -6.09600019 2.53999996
v -1.01600003 -3.80999994 2.53999996
v 0.31999999 -4.76000023 2.53999996
v -0.31999999 -2.8599999 2.53999996
v -1.26999998 -3.55599999 2.53999996
v 1.26999998 -4.06400013 2.53999996
v 1.01600003 -3.80999994 2.53999996
v -0.31999999 -2.22000003 2.53999996
v -1.26999998 -1.52400005 2.53999996
v 0.31999999 -2.8599999 2.53999996
v 1.26999998 -3.55599999 2.53999996
v -1.01600003 -1.26999998 2.53999996
v 0.31999999 -2.22000003 2.53999996
v -0.31999999 -0.31999999 2.53999996
v 1.26999998 -1.52400005 2.53999996
v 1.01600003 -1.26999998 2.53999996
v 0.31999999 -0.31999999 2.53999996
v -0.31999999 0.31999999 2.53999996
v 1.26999998 -1.01600003 2.53999996
v 0.31999999 0.31999999 2.53999996
v 1.26999998 1.01600003 2.53999996
usemtl mat0
f 193 194 195
f 195 194 196
f 197 193 198
f 198 193 195
f 194 199 196
f 196 199 200
f 201 202 203
f 203 204 205
f 202 204 203
f 206 207 201
f 201 207 202
f 206 208 207
f 204 209 205
f 204 210 209
f 208 211 207
f 212 211 208
f 210 213 209
f 214 213 210
f 210 215 214
f 207 215 210
f 211 215 207
f 212 216 211
f 217 216 212
f 215 218 214
f 217 219 216
f 215 220 218
f 219 221 216
f 222 221 219
f 220 223 218
f 220 224 223
f 221 225 216
f 220 225 224
f 216 225 220
f 222 226 221
f 227 226 222
f 225 228 224
f 227 229 226
f 230 231 229
f 229 231 226
f 225 232 228
f 233 232 234
f 234 232 225
f 231 235 226
f 234 235 233
f 226 235 234
f 236 237 230
f 230 237 231
f 236 238 237
f 235 239 233
f 240 241 238
f 238 241 237
f 237 241 242
f 235 243 239
f 242 243 235
f 242 244 243
f 241 245 242
f 242 245 244
f 246 247 240
f 240 247 241
f 246 248 247
f 245 249 244
f 250 251 248
f 248 251 247
f 252 253 245
f 245 253 249
f 254 253 252
f 247 255 252
f 251 255 247
f 252 255 254
f 256 257 250
f 250 257 251
f 255 258 254
f 256 259 257
f 255 260 258
f 261 262 259
f 257 262 260
f 259 262 257
f 260 263 258
f 260 264 263
f 261 265 262
f 266 265 261
f 260 267 264
f 262 267 260
f 267 268 264
f 266 269 265
f 267 270 268
f 199 271 269
f 269 271 265
f 270 272 268
f 270 273 272
f 271 274 265
f 270 274 273
f 265 274 270
f 194 275 199
f 199 275 271
f 274 276 273
f 194 193 275
f 274 277 276
f 277 278 276
f 193 197 275
f 277 197 278
f 275 197 277
f 279 280 281
f 282 281 283
f 282 279 281
f 284 285 280
f 284 280 279
f 286 285 284
f 287 282 283
f 288 282 287
f 289 286 284
f 289 290 286
f 291 288 287
f 291 292 288
f 293 288 292
f 293 284 288
f 293 289 284
f 294 290 289
f 294 295 290
f 296 293 292
f 297 295 294
f 298 293 296
f 299 297 294
f 299 300 297
f 301 298 296
f 302 298 301
f 303 299 294
f 303 298 302
f 303 294 298
f 304 300 299
f 304 305 300
f 306 303 302
f 307 305 304
f 308 309 307
f 308 307 304
f 310 303 306
f 310 311 312
f 310 312 303
f 313 308 304
f 313 312 311
f 313 304 312
f 314 315 309
f 314 309 308
f 316 315 314
f 317 313 311
f 318 319 316
f 318 316 314
f 318 314 320
f 321 313 317
f 321 320 313
f 322 320 321
f 323 318 320
f 323 320 322
f 324 325 319
f 324 319 318
f 326 325 324
f 327 323 322
f 328 329 326
f 328 326 324
f 330 331 323
f 330 323 327
f 330 332 331
f 333 324 331
f 333 328 324
f 333 331 332
f 334 335 329
f 334 329 328
f 336 333 332
f 337 335 334
f 338 333 336
f 339 340 337
f 339 334 338
f 339 337 334
f 341 338 336
f 342 338 341
f 343 340 339
f 343 344 340
f 345 338 342
f 345 339 338
f 346 345 342
f 347 344 343
f 348 345 346
f 349 200 347
f 349 347 343
f 350 348 346
f 351 348 350
f 352 349 343
f 352 348 351
f 352 343 348
f 353 196 200
f 353 200 349
f 354 352 351
f 195 196 353
f 355 352 354
f 356 355 354
f 198 195 353
f 198 355 356
f 198 353 355
f 278 197 356
f 356 197 198
f 199 269 200
f 200 269 347
f 276 278 354
f 354 278 356
f 269 266 347
f 347 266 344
f 273 276 351
f 351 276 354
f 266 261 344
f 344 261 340
f 272 273 350
f 350 273 351
f 261 259 340
f 340 259 337
f 268 272 346
f 346 272 350
f 259 256 337
f 337 256 335
f 264 268 342
f 342 268 346
f 256 250 335
f 335 250 329
f 263 264 341
f 341 264 342
f 250 248 329
f 329 248 326
f 258 263 336
f 336 263 341
f 248 246 326
f 326 246 325
f 254 258 332
f 332 258 336
f 246 240 325
f 325 240 319
f 253 254 330
f 330 254 332
f 240 238 319
f 319 238 316
f 249 253 327
f 327 253 330
f 238 236 316
f 316 236 315
f 244 249 322
f 322 249 327
f 236 230 315
f 315 230 309
f 243 244 321
f 321 244 322
f 230 229 309
f 309 229 307
f 239 243 317
f 317 243 321
f 229 227 307
f 307 227 305
f 233 239 311
f 311 239 317
f 227 222 305
f 305 222 300
f 232 233 310
f 310 233 311
f 222 219 300
f 300 219 297
f 228 232 306
f 306 232 310
f 219 217 297
f 297 217 295
f 224 228 302
f 302 228 306
f 217 212 295
f 295 212 290
f 223 224 301
f 301 224 302
f 212 208 290
f 290 208 286
f 218 223 296
f 296 223 301
f 208 206 286
f 286 206 285
f 214 218 292
f 292 218 296
f 206 201 285
f 285 201 280
f 213 214 291
f 291 214 292
f 201 203 280
f 280 203 281
f 209 213 287
f 287 213 291
f 203 205 281
f 281 205 283
f 205 209 283
f 283 209 287
# Vertices: 164, normals: 0, texture coordinates: 0, faces: 292

